<svg width="30" height="30" viewBox="0 0 30 30" fill="none" xmlns="http://www.w3.org/2000/svg">
<path d="M1.87488 22.0304C1.87488 22.9006 2.22058 23.7352 2.83593 24.3506C3.45129 24.9659 4.28589 25.3116 5.15613 25.3116H24.8436C25.7139 25.3116 26.5485 24.9659 27.1638 24.3506C27.7792 23.7352 28.1249 22.9006 28.1249 22.0304V13.007H1.87488V22.0304ZM5.74206 17.5773C5.74206 17.1111 5.92726 16.664 6.25692 16.3343C6.58657 16.0047 7.03368 15.8195 7.49988 15.8195H10.3124C10.7786 15.8195 11.2257 16.0047 11.5553 16.3343C11.885 16.664 12.0702 17.1111 12.0702 17.5773V18.7491C12.0702 19.2153 11.885 19.6625 11.5553 19.9921C11.2257 20.3218 10.7786 20.507 10.3124 20.507H7.49988C7.03368 20.507 6.58657 20.3218 6.25692 19.9921C5.92726 19.6625 5.74206 19.2153 5.74206 18.7491V17.5773Z" fill="#7E868C"/>
<path d="M24.8436 4.68591H5.15613C4.28589 4.68591 3.45129 5.03162 2.83593 5.64697C2.22058 6.26232 1.87488 7.09692 1.87488 7.96716V9.4906H28.1249V7.96716C28.1249 7.09692 27.7792 6.26232 27.1638 5.64697C26.5485 5.03162 25.7139 4.68591 24.8436 4.68591Z" fill="#7E868C"/>
</svg>
