<svg width="30" height="30" viewBox="0 0 30 30" fill="none" xmlns="http://www.w3.org/2000/svg">
<path d="M15.3258 5.93502C15.2385 5.85157 15.1225 5.80499 15.0018 5.80499C14.881 5.80499 14.765 5.85157 14.6777 5.93502L3.89062 16.2399C3.84481 16.2837 3.80837 16.3364 3.78349 16.3947C3.75862 16.453 3.74583 16.5158 3.7459 16.5792L3.74414 26.2506C3.74414 26.7479 3.94168 27.2248 4.29332 27.5765C4.64495 27.9281 5.12186 28.1256 5.61914 28.1256H11.25C11.4986 28.1256 11.7371 28.0269 11.9129 27.851C12.0887 27.6752 12.1875 27.4368 12.1875 27.1881V19.2194C12.1875 19.0951 12.2369 18.9758 12.3248 18.8879C12.4127 18.8 12.5319 18.7506 12.6562 18.7506H17.3437C17.4681 18.7506 17.5873 18.8 17.6752 18.8879C17.7631 18.9758 17.8125 19.0951 17.8125 19.2194V27.1881C17.8125 27.4368 17.9113 27.6752 18.0871 27.851C18.2629 28.0269 18.5014 28.1256 18.75 28.1256H24.3785C24.8758 28.1256 25.3527 27.9281 25.7043 27.5765C26.056 27.2248 26.2535 26.7479 26.2535 26.2506V16.5792C26.2536 16.5158 26.2408 16.453 26.2159 16.3947C26.191 16.3364 26.1546 16.2837 26.1088 16.2399L15.3258 5.93502Z" fill="#0C6DFC"/>
<path d="M28.765 14.3074L24.3822 10.1144V3.75171C24.3822 3.50307 24.2834 3.26461 24.1076 3.0888C23.9318 2.91298 23.6933 2.81421 23.4447 2.81421H20.6322C20.3836 2.81421 20.1451 2.91298 19.9693 3.0888C19.7935 3.26461 19.6947 3.50307 19.6947 3.75171V5.62671L16.3009 2.38179C15.9834 2.06069 15.5111 1.87671 15.0007 1.87671C14.4922 1.87671 14.0211 2.06069 13.7035 2.38237L1.2406 14.3062C0.876145 14.6578 0.830442 15.2361 1.16208 15.6169C1.24536 15.7131 1.34733 15.7913 1.46179 15.8467C1.57624 15.9022 1.70079 15.9338 1.82785 15.9396C1.95491 15.9454 2.08182 15.9253 2.20086 15.8805C2.3199 15.8357 2.42858 15.7672 2.52029 15.6791L14.6785 4.06108C14.7657 3.97764 14.8818 3.93106 15.0025 3.93106C15.1232 3.93106 15.2393 3.97764 15.3265 4.06108L27.4859 15.6791C27.665 15.8508 27.9049 15.9446 28.153 15.9397C28.4012 15.9349 28.6372 15.8319 28.8095 15.6533C29.1693 15.2806 29.1394 14.6654 28.765 14.3074Z" fill="#0C6DFC"/>
</svg>
