<svg width="30" height="30" viewBox="0 0 30 30" fill="none" xmlns="http://www.w3.org/2000/svg">
<path d="M18.3088 9.75V7.125C18.3088 6.42881 18.0299 5.76113 17.5335 5.26884C17.0371 4.77656 16.3638 4.5 15.6618 4.5H6.39706C5.69502 4.5 5.02173 4.77656 4.52531 5.26884C4.02889 5.76113 3.75 6.42881 3.75 7.125V22.875C3.75 23.5712 4.02889 24.2389 4.52531 24.7312C5.02173 25.2234 5.69502 25.5 6.39706 25.5H15.6618C16.3638 25.5 17.0371 25.2234 17.5335 24.7312C18.0299 24.2389 18.3088 23.5712 18.3088 22.875V20.25M10.3676 15H26.25M26.25 15L22.2794 11.0625M26.25 15L22.2794 18.9375" stroke="#7E868C" stroke-width="3" stroke-linecap="round" stroke-linejoin="round"/>
</svg>
