<svg width="30" height="30" viewBox="0 0 30 30" fill="none" xmlns="http://www.w3.org/2000/svg">
<path d="M19.4905 3.78353C18.3503 2.55247 16.7577 1.87454 14.9999 1.87454C13.2327 1.87454 11.6348 2.54837 10.4999 3.77181C9.35261 5.00872 8.79362 6.68978 8.92487 8.50501C9.18503 12.0863 11.9102 14.9995 14.9999 14.9995C18.0895 14.9995 20.81 12.0868 21.0743 8.50618C21.2073 6.70735 20.6448 5.02981 19.4905 3.78353Z" fill="#7E868C"/>
<path d="M25.3124 28.1232H4.68741C4.41744 28.1267 4.15009 28.07 3.90481 27.9572C3.65952 27.8444 3.44247 27.6783 3.26944 27.4711C2.88858 27.0158 2.73506 26.3941 2.84874 25.7654C3.34327 23.0221 4.88663 20.7176 7.31241 19.0998C9.46748 17.6637 12.1974 16.8732 14.9999 16.8732C17.8024 16.8732 20.5323 17.6642 22.6874 19.0998C25.1132 20.717 26.6565 23.0215 27.1511 25.7648C27.2647 26.3935 27.1112 27.0152 26.7304 27.4705C26.5574 27.6778 26.3404 27.844 26.0951 27.9569C25.8498 28.0699 25.5824 28.1267 25.3124 28.1232Z" fill="#7E868C"/>
</svg>
